<?xml version="1.0" encoding="utf-8"?>
<!-- Generator: Adobe Illustrator 27.9.0, SVG Export Plug-In . SVG Version: 6.00 Build 0)  -->
<svg version="1.1" id="Camada_1" xmlns="http://www.w3.org/2000/svg" xmlns:xlink="http://www.w3.org/1999/xlink" x="0px" y="0px"
	 viewBox="0 0 1080 447.3" style="enable-background:new 0 0 1080 447.3;" xml:space="preserve">
<style type="text/css">
	.st0{fill:#213388;}
	.st1{fill:#FAF115;}
	.st2{fill:#FFFFFF;}
</style>
<g id="LOGO_COLORIDO">
	<polygon class="st0" points="874.27,133.6 874.27,69.93 205.75,69.93 205.75,133.6 71.08,133.6 71.08,376.01 205.75,376.01 
		205.75,329.49 874.25,329.49 874.25,376.01 1008.92,376.01 1008.92,133.6 	"/>
	<rect x="88.22" y="153.18" class="st1" width="100.4" height="17.14"/>
	<rect x="88.22" y="344.21" class="st1" width="100.4" height="17.14"/>
	<rect x="88.22" y="260.93" class="st1" width="41.62" height="19.59"/>
	<rect x="146.99" y="260.93" class="st1" width="41.62" height="19.59"/>
	<rect x="88.22" y="224.2" class="st1" width="41.62" height="19.59"/>
	<rect x="146.99" y="224.2" class="st1" width="41.62" height="19.59"/>
	<rect x="88.22" y="187.47" class="st1" width="41.62" height="19.59"/>
	<rect x="146.99" y="187.47" class="st1" width="41.62" height="19.59"/>
	<rect x="88.22" y="297.66" class="st1" width="41.62" height="19.59"/>
	<rect x="146.99" y="297.66" class="st1" width="41.62" height="19.59"/>
	<rect x="891.39" y="153.18" class="st1" width="100.4" height="17.14"/>
	<rect x="891.39" y="344.21" class="st1" width="100.4" height="17.14"/>
	<rect x="891.39" y="260.93" class="st1" width="41.62" height="19.59"/>
	<rect x="950.15" y="260.93" class="st1" width="41.62" height="19.59"/>
	<rect x="891.39" y="224.2" class="st1" width="41.62" height="19.59"/>
	<rect x="950.15" y="224.2" class="st1" width="41.62" height="19.59"/>
	<rect x="891.39" y="187.47" class="st1" width="41.62" height="19.59"/>
	<rect x="950.15" y="187.47" class="st1" width="41.62" height="19.59"/>
	<rect x="891.39" y="297.66" class="st1" width="41.62" height="19.59"/>
	<rect x="950.15" y="297.66" class="st1" width="41.62" height="19.59"/>
	<rect x="225.34" y="99.31" class="st1" width="626.91" height="24.49"/>
	<rect x="225.34" y="270.72" class="st1" width="146.93" height="24.49"/>
	<rect x="705.33" y="270.72" class="st1" width="146.93" height="24.49"/>
	<g>
		<path class="st2" d="M344.62,176.59c-0.38-4.34-1.85-7.67-4.4-10c-2.55-2.32-5.96-3.48-10.22-3.48c-4.8,0-8.53,2-11.19,6
			c-2.67,4-4,10-4,17.99c0,2.9,0.21,5.69,0.63,8.4c0.42,2.7,1.2,5.08,2.34,7.14c1.14,2.06,2.78,3.71,4.91,4.97
			c2.13,1.26,4.91,1.88,8.34,1.88c4.34,0,7.6-1.33,9.77-4c2.17-2.66,3.52-5.98,4.06-9.94h25.93c-0.61,5.33-1.98,10.09-4.11,14.28
			c-2.13,4.19-4.89,7.75-8.28,10.68c-3.39,2.93-7.37,5.18-11.94,6.74c-4.57,1.56-9.56,2.34-14.96,2.34
			c-6.78,0-12.87-1.01-18.28-3.03c-5.41-2.02-10-4.91-13.76-8.68c-3.77-3.77-6.64-8.32-8.62-13.65c-1.98-5.33-2.97-11.35-2.97-18.05
			c0-6.63,1.07-12.6,3.2-17.93c2.13-5.33,5.04-9.86,8.74-13.59c3.69-3.73,8.03-6.61,13.02-8.62c4.99-2.02,10.34-3.03,16.05-3.03
			c12.57,0,22.33,2.95,29.3,8.85c6.97,5.9,10.98,14.15,12.05,24.73H344.62z"/>
		<path class="st2" d="M375.47,227.42l29.47-82.25h27.41l29.47,82.25h-26.84l-3.2-10.85h-26.84l-3.08,10.85H375.47z M418.42,169.96
			l-8.34,29.47h17.02L418.42,169.96z"/>
		<path class="st2" d="M513.91,169.05c-0.23-1.45-0.69-2.61-1.37-3.48c-0.69-0.87-1.52-1.58-2.51-2.11
			c-1.9-0.99-4.23-1.49-6.97-1.49c-2.97,0-5.14,0.4-6.51,1.2c-1.37,0.8-2.06,1.96-2.06,3.48c0,1.53,0.69,2.78,2.06,3.77
			c1.37,0.99,3.16,1.87,5.37,2.63c2.21,0.76,4.72,1.47,7.54,2.11c2.82,0.65,5.71,1.39,8.68,2.23c2.97,0.84,5.86,1.85,8.68,3.03
			c2.82,1.18,5.33,2.7,7.54,4.57c2.21,1.87,4,4.11,5.37,6.74c1.37,2.63,2.06,5.81,2.06,9.54c0,4.8-0.95,8.97-2.86,12.51
			c-1.9,3.54-4.55,6.47-7.94,8.8c-3.39,2.32-7.44,4.08-12.16,5.25c-4.72,1.18-9.9,1.77-15.54,1.77c-5.41,0-10.32-0.74-14.74-2.23
			c-4.42-1.49-8.21-3.48-11.37-6c-3.16-2.51-5.64-5.43-7.42-8.74c-1.79-3.31-2.76-6.83-2.91-10.57h25.82
			c0.53,2.89,2.02,5.07,4.46,6.51c1.07,0.69,2.28,1.2,3.65,1.54c1.37,0.34,2.7,0.51,4,0.51c3.43,0,6.15-0.51,8.17-1.54
			c2.02-1.03,3.03-2.53,3.03-4.51c0-2.06-1.16-3.64-3.48-4.74c-2.32-1.1-5.24-2.09-8.74-2.97c-3.5-0.88-7.31-1.83-11.42-2.86
			c-4.11-1.03-7.92-2.49-11.42-4.4c-3.5-1.9-6.42-4.45-8.74-7.65c-2.32-3.2-3.48-7.42-3.48-12.68c0-4.34,0.89-8.17,2.68-11.48
			c1.79-3.31,4.26-6.05,7.42-8.22c3.16-2.17,6.91-3.81,11.25-4.91c4.34-1.1,9.1-1.66,14.28-1.66c5.71,0,10.66,0.69,14.85,2.06
			c4.19,1.37,7.71,3.24,10.57,5.6c2.86,2.36,5.08,5.12,6.68,8.28c1.6,3.16,2.63,6.53,3.08,10.11H513.91z"/>
		<path class="st2" d="M546.81,227.42l29.47-82.25h27.41l29.47,82.25h-26.84l-3.2-10.85h-26.84l-3.08,10.85H546.81z M589.76,169.96
			l-8.34,29.47h17.02L589.76,169.96z"/>
		<path class="st2" d="M628.48,145.17h27.19l14.39,54.72l14.96-54.72h27.19l-28.56,82.25h-27.07L628.48,145.17z"/>
		<path class="st2" d="M723.52,227.42v-82.25h67.05v19.19h-40.09v11.77h33.93v19.19h-33.93v12.91h41.69v19.19H723.52z"/>
	</g>
	<g>
		<path class="st2" d="M461.93,278.27l8.68-1.76l-6.11,19.4c7.37-13.74,13.55-20.38,20.09-19.77c2.91,0.27,5.04,2.89,5.01,5.8
			c-0.03,3.22-1.11,6.7-2.71,10.71c5.83-10.99,11.67-16.55,17.5-16.55c3.39,0,6.24,2.71,6.24,6.38c0,2.04-0.81,4.75-2.03,8.28
			l-2.71,8.01c-0.54,1.63-0.95,2.85-0.95,3.53c0,1.08,0.54,1.76,1.36,1.76c2.04,0,5.16-2.17,8.82-6.11l1.36,1.22
			c-4.75,5.02-8.55,7.74-13.57,7.74c-3.53,0-5.7-1.9-5.7-4.88c0-2.17,0.81-4.88,2.04-8.41l1.63-5.16c0.95-2.71,1.63-4.75,1.63-6.51
			c0-1.36-0.81-2.31-1.76-2.31c-3.94,0-10.86,8.82-18.05,26.59h-7.19l6.24-21.17c0.54-1.9,0.68-2.99,0.68-3.26
			c0-1.22-0.81-2.17-2.17-2.17c-3.8,0-10.85,8.68-18.32,26.59h-7.73L461.93,278.27z"/>
		<path class="st2" d="M539.13,275.96c7.06,0,12.21,4.88,12.21,11.94c0,8.96-9.23,18.59-19.68,18.59c-8.55,0-13.3-4.07-13.3-11.81
			C518.37,286.14,527.6,275.96,539.13,275.96z M533.16,280.85c-4.07,5.29-6.78,13.16-6.78,18.45c0,3.26,1.9,5.43,4.61,5.43
			c6.11,0,12.62-11.67,12.62-22.66c0-2.44-2.03-4.48-4.34-4.48C536.55,277.59,534.79,278.68,533.16,280.85z M536.96,270.53
			c0-0.95,5.84-2.31,8.55-7.05c2.44-4.34,1.76-8.82,5.43-8.82c1.76,0,2.99,1.22,2.99,3.26s-1.63,4.34-5.16,7.33
			c-4.88,4.21-10.04,6.11-10.86,6.11C537.37,271.35,536.96,271.08,536.96,270.53z"/>
		<path class="st2" d="M571.15,275.56c-3.66,11.67-5.56,19-5.56,21.85c0,3.53,1.49,5.43,3.8,5.43c4.61,0,12.76-8.82,16.28-26.73
			l5.43-0.54c-6.78,20.49-19,31.21-25.78,31.21c-4.61,0-7.33-3.53-7.33-10.04c0-4.07,1.76-10.86,5.43-20.49L571.15,275.56z"/>
		<path class="st2" d="M620.4,299.03c-6.11,5.02-11.67,7.6-17.1,7.6c-6.65,0-10.45-3.66-10.45-10.45c0-9.77,10.86-20.49,22.39-20.49
			c5.7,0,9.09,2.85,9.09,7.46c0,6.38-8.01,10.99-24.02,14.79c0.14,3.66,2.03,5.7,5.56,5.7c3.53,0,8.28-1.76,13.84-5.83L620.4,299.03
			z M618.77,281.66c0-2.58-1.22-4.07-3.66-4.07c-5.16,0-11.94,6.65-14.79,18.32C612.12,293.47,618.77,287.23,618.77,281.66z"/>
		<path class="st2" d="M644.42,275.69l-6.65,23.75c-0.27,1.22-0.41,2.17-0.41,2.71c0,1.22,0.68,1.9,1.63,1.9
			c1.36,0,4.88-1.9,8.68-6.24l1.36,1.22c-4.75,5.16-8.96,7.87-13.57,7.87c-3.93,0-5.97-1.76-5.97-5.16c0-1.49,0.54-2.99,0.95-4.75
			l5.56-20.49L644.42,275.69z M643.41,254.72c3.69-0.54,6.64,2.41,6.1,6.1c-0.3,2.04-2.3,4.15-4.33,4.48
			c-3.68,0.6-6.84-2.57-6.25-6.25C639.25,257.02,641.37,255.02,643.41,254.72z"/>
		<path class="st2" d="M656.35,290.89l12.08-12.21v-0.41c0-5.56,2.44-8.68,5.84-8.68c1.9,0,3.26,1.22,3.26,2.85
			c0,2.58-2.31,4.07-6.78,6.65c5.56,3.66,8.14,8.01,8.14,13.43c0,8.41-7.46,14.25-17.1,14.25c-5.7,0-9.09-1.9-9.09-4.88
			c0-2.04,1.22-3.53,3.12-3.53c3.8,0,4.88,6.11,9.23,6.11c4.21,0,5.29-4.75,5.29-13.84c0-2.99-0.54-6.11-1.49-9.77l-11.4,11.4
			L656.35,290.89z"/>
		<path class="st2" d="M405.45,289.59c-4.82,2.29-10.96,5.69-10.27,11.71c0.5,3.69,4.35,4.85,7.77,5.28
			c6,0.78,12.05-0.79,17.39-3.67c15.13-8.32,22.02-25.04,30.81-39.38c3.48-5.66,7.43-11.3,12.25-16.02
			c1.43-1.44,3.49-3.12,4.89-4.35c0.69-0.7,1.04-1.1,1.09-1.72c-0.02-0.07,0.02-0.01,0.01-0.01c0,0.01,0.08,0.05,0.03,0.02
			c-0.04-0.03-0.22-0.08-0.49-0.09c-1.49-0.05-3.52,0.92-5.03,1.5c-2.92,1.2-5.78,2.52-8.59,3.97c-7.46,3.86-14.54,8.71-20.8,14.26
			c-4.9,4.01-5.09,9.62,1.32,11.89c1.78,0.58,3.81,0.72,5.83,0.53l0.38,2.51c-7.56,1.97-17.23-2.95-14.79-11.94
			c0.82-2.64,2.47-4.6,4.06-6.27c8.74-8.68,19.04-15.56,30.32-20.4c2.4-0.98,4.54-2.06,7.38-2.07c2.98-0.16,6.25,2.28,6.43,5.44
			c0.52,4-2.93,6.97-5.48,9.02c-2.33,2.01-4.41,4.27-6.4,6.65c-10.98,13.33-17.18,30.38-29.92,42.64
			c-8.2,7.88-19.64,13.58-31.29,11.95c-3.53-0.44-7.81-1.85-10.01-5.15c-2.35-3.43-2.08-8.17-0.15-11.63
			c2.27-4.36,6.48-7.16,10.25-9.8C402.43,284.45,405.45,289.59,405.45,289.59L405.45,289.59z"/>
	</g>
</g>
</svg>
