<svg xmlns="http://www.w3.org/2000/svg" viewBox="0 0 944.81 165"><defs><style>.cls-1{fill:#232c58;}.cls-2{fill:#e2254a;}</style></defs><title>Logo VizoneSouza Horizontal</title><g id="Camada_2" data-name="Camada 2"><g id="Camada_1-2" data-name="Camada 1"><path class="cls-1" d="M238,152.47h9.38v1.6H236.12v-15.3h11v1.58H238v5.28h8.63v1.53H238Z"/><path class="cls-1" d="M270.51,138.77h1.9v15.3h-1.77V141.9l-5.46,9.61h-.77L259,141.9v12.17h-1.72v-15.3h1.85l5.71,10.14Z"/><path class="cls-1" d="M294.6,143.51v.11c0,2.87-1.9,4.72-5.07,4.72H285v5.73h-1.86v-15.3h6.38C292.74,138.77,294.6,140.7,294.6,143.51Zm-1.79,0a3.06,3.06,0,0,0-3.36-3.21H285v6.56h4.33c2.34,0,3.45-1.34,3.45-3.24Z"/><path class="cls-1" d="M316.34,154.07h-2a5.77,5.77,0,0,1-1.27-3.32c-.24-1.66-.65-3-2.64-3.11H306v6.43h-1.86v-15.3h6.19c3.41,0,5.22,1.73,5.22,4.33v.11a4,4,0,0,1-2.47,3.91c1.31.57,1.51,2,1.75,3.34A6.1,6.1,0,0,0,316.34,154.07ZM306,146.18h4.42c2.29,0,3.32-1.2,3.32-2.88v-.11c0-1.8-1.27-2.84-3.39-2.89H306Z"/><path class="cls-1" d="M327.43,152.47h9.38v1.6H325.57v-15.3h11v1.58h-9.13v5.28h8.63v1.53h-8.63Z"/><path class="cls-1" d="M348.55,152.47h9.38v1.6H346.7v-15.3h11v1.58h-9.14v5.28h8.64v1.53h-8.64Z"/><path class="cls-1" d="M378.74,138.77h1.78v15.3h-1.67l-9.26-12.28v12.28h-1.77v-15.3h1.68L378.74,151Z"/><path class="cls-1" d="M404.37,146.29v.17a7.5,7.5,0,0,1-7.8,7.61H391.3v-15.3h5.31C401.55,138.79,404.37,142.14,404.37,146.29Zm-1.9.13c0-3.43-2.12-6-6.21-6h-3.1v12h3c4.22,0,6.32-2.73,6.34-5.9Z"/><path class="cls-1" d="M414.35,154.07v-15.3h1.85v15.3Z"/><path class="cls-1" d="M440.35,138.77h1.9v15.3h-1.77V141.9L435,151.51h-.76l-5.44-9.61v12.17h-1.73v-15.3h1.86l5.7,10.14Z"/><path class="cls-1" d="M454.87,152.47h9.37v1.6H453v-15.3h11v1.58h-9.13v5.28h8.63v1.53h-8.63Z"/><path class="cls-1" d="M485.06,138.77h1.77v15.3h-1.66l-9.27-12.28v12.28h-1.77v-15.3h1.68L485.06,151Z"/><path class="cls-1" d="M508.13,138.77v1.58h-5.27v13.72H501V140.35h-5.29v-1.58Z"/><path class="cls-1" d="M523.54,154.29a7.63,7.63,0,0,1-7.86-7.83v-.17a7.62,7.62,0,0,1,7.93-7.74h.09a7.46,7.46,0,0,1,7.82,7.76v.15a7.64,7.64,0,0,1-7.89,7.83Zm6.06-7.78v-.13a5.77,5.77,0,0,0-6-6.1,5.88,5.88,0,0,0-6.05,6.1v.13a6,6,0,1,0,12,0Z"/><path class="cls-1" d="M539.77,152,541,150.7a8,8,0,0,0,5.33,2c2.34,0,3.63-1.18,3.63-2.67-.09-4-9.2-1.74-9.31-7.19v-.06c0-2.3,2.1-4.2,5.36-4.2h.21a8,8,0,0,1,5.31,1.88l-1.17,1.29a6.28,6.28,0,0,0-4.31-1.55c-2,0-3.5,1-3.52,2.56.15,3.76,9.35,1.59,9.35,7.17v.15c0,2.58-2.4,4.24-5.57,4.24A9.29,9.29,0,0,1,539.77,152Z"/><path class="cls-1" d="M573.83,154.07v-15.3h1.85v15.3Z"/><path class="cls-1" d="M599.83,138.77h1.9v15.3H600V141.9l-5.47,9.61h-.76l-5.44-9.61v12.17h-1.73v-15.3h1.86l5.7,10.14Z"/><path class="cls-1" d="M619.46,154.29a7.63,7.63,0,0,1-7.87-7.83v-.17a7.63,7.63,0,0,1,7.94-7.74h.08a7.47,7.47,0,0,1,7.83,7.76v.15a7.64,7.64,0,0,1-7.89,7.83Zm6-7.78v-.13a5.76,5.76,0,0,0-6-6.1,5.88,5.88,0,0,0-6.06,6.1v.13a6,6,0,1,0,12,0Z"/><path class="cls-1" d="M649.78,149.87c0,3-2.42,4.2-5.29,4.2h-7.17v-15.3h6.39c3.27,0,4.89,1.73,4.89,4a3.62,3.62,0,0,1-1.92,3.26A3.7,3.7,0,0,1,649.78,149.87Zm-10.6-9.61v5.33H644a2.63,2.63,0,0,0,2.84-2.62c0-1.77-1.37-2.71-3.25-2.71Zm5.07,12.3c2.36,0,3.59-1.07,3.59-2.77,0-2.06-1.62-2.8-3.81-2.8h-4.85v5.57Z"/><path class="cls-1" d="M659.65,154.07v-15.3h1.86v15.3Z"/><path class="cls-1" d="M674.24,152.47h9.29v1.6H672.38v-15.3h1.86Z"/><path class="cls-1" d="M692.76,154.07v-15.3h1.86v15.3Z"/><path class="cls-1" d="M717.34,154.07l-1.81-4h-8.11l-1.79,4h-2l7-15.3h1.75l7,15.3Zm-5.85-13.35-3.5,7.82h7Zm2.66-7.41-1.92,3.43H711l1-3.43Z"/><path class="cls-1" d="M740.5,154.07h-2a5.77,5.77,0,0,1-1.27-3.32c-.24-1.66-.65-3-2.64-3.11h-4.44v6.43H728.3v-15.3h6.19c3.41,0,5.22,1.73,5.22,4.33v.11a4,4,0,0,1-2.47,3.91c1.31.57,1.51,2,1.75,3.34A6.1,6.1,0,0,0,740.5,154.07Zm-10.34-7.89h4.42c2.29,0,3.32-1.2,3.32-2.88v-.11c0-1.8-1.27-2.84-3.39-2.89h-4.35Z"/><path class="cls-1" d="M749.82,154.07v-15.3h1.86v15.3Z"/><path class="cls-1" d="M769.53,154.29a7.63,7.63,0,0,1-7.87-7.83v-.17a7.63,7.63,0,0,1,7.93-7.74h.09a7.46,7.46,0,0,1,7.82,7.76v.15a7.64,7.64,0,0,1-7.89,7.83Zm6.05-7.78v-.13a5.76,5.76,0,0,0-6-6.1,5.88,5.88,0,0,0-6.05,6.1v.13a6,6,0,1,0,12,0Z"/><path class="cls-1" d="M785.75,152l1.18-1.29a8.07,8.07,0,0,0,5.33,2c2.34,0,3.63-1.18,3.63-2.67-.09-4-9.2-1.74-9.31-7.19v-.06c0-2.3,2.1-4.2,5.36-4.2h.22a8,8,0,0,1,5.31,1.88l-1.18,1.29a6.28,6.28,0,0,0-4.31-1.55c-2,0-3.5,1-3.52,2.56.15,3.76,9.36,1.59,9.36,7.17v.15c0,2.58-2.41,4.24-5.58,4.24A9.29,9.29,0,0,1,785.75,152Z"/><path class="cls-1" d="M821.58,152.47h9.28v1.6H819.72v-15.3h1.86Z"/><path class="cls-1" d="M848.3,138.77v1.58H843v13.72h-1.88V140.35h-5.29v-1.58Z"/><path class="cls-1" d="M870.23,146.29v.17a7.5,7.5,0,0,1-7.8,7.61h-5.27v-15.3h5.31C867.41,138.79,870.23,142.14,870.23,146.29Zm-1.9.13c0-3.43-2.12-6-6.21-6H859v12h3c4.22,0,6.31-2.73,6.34-5.9Z"/><path class="cls-1" d="M891.39,154.07l-1.81-4h-8.11l-1.79,4h-1.94l7-15.3h1.74l7,15.3Zm-5.85-13.35-3.5,7.82h7Z"/><path class="cls-1" d="M282.48,16.45c-5.75.15-9.05,2.44-13.21,13.07l-31.88,80.83h-2.15l-35-78.1C194,18.32,191.88,16.6,184.7,16.45V13.72h38.05v2.73l-4,.29c-4.6.29-6.46,1.58-6.46,4.45,0,2.3,1.29,5.74,5.6,15.37l21.82,49.1,21.11-53c1.72-4.31,2.72-7.9,2.72-10.34,0-5.6-4.59-5.31-10.33-5.89V13.72h29.29Z"/><path class="cls-1" d="M285.49,108.78v-2.16c9.91-.57,11.34-1.87,11.34-12.78V61.25c0-6.75-1.15-9-4.73-9a21.33,21.33,0,0,0-6,.72V50.63l22.25-7.9.57.57V93.7c0,10.62,1.15,12.2,10.63,12.92v2.16Zm16.08-83.42A7.15,7.15,0,0,1,294.39,18a7.36,7.36,0,0,1,7.33-7.32A7.26,7.26,0,0,1,309,18,7.21,7.21,0,0,1,301.57,25.36Z"/><path class="cls-1" d="M381,108.78H327v-2.16l38.19-58.15H345.79c-9,0-11.19,2.16-12.49,12.64h-2.58l.57-17H381v2.16l-38.62,58.15h19.1c8.32,0,13.2-1.44,15.21-3.88s2.45-4.74,3.88-11.92l2.59.58Z"/><path class="cls-1" d="M422,110.21c-17.37,0-31-14.21-31-34.17s12.92-33.31,32.31-33.31c17.51,0,31,13.06,31,32.88S441.42,110.21,422,110.21Zm12.21-56.28c-3.45-4.31-7.47-7.18-13.64-7.18-9.91,0-16.66,8.47-16.66,22.83,0,11.34,2.3,21.68,7.61,29.43a15.52,15.52,0,0,0,12.93,7.18c10.62,0,16.94-10,16.94-26.71C441.42,69.72,438.83,59.81,434.24,53.93Z"/><path class="cls-1" d="M498.42,108.78l.14-2.16c7.18-.57,8.91-3.44,8.91-12.92V65.13c0-10.2-3.45-14.5-10.49-14.5-4.74,0-8.18,1.72-14.79,8.18V98.44c0,5.6,2,7.61,9.34,8.18v2.16h-30.3v-2.16c7.32-.57,8.9-2.87,8.9-11.34V60.39c0-7-1-9.33-5-9.33a11.73,11.73,0,0,0-4.17.57V49.19c7.9-2.3,12.64-3.88,19.67-6.46l1.15.43v11.2h.15c7.46-8.47,14.07-11.63,20.67-11.63,10.92,0,16.94,7.9,16.94,22.11V96.57c0,7.75,1.73,9.33,8.76,10.05v2.16Z"/><path class="cls-1" d="M591.32,86.23c-5.6,15.65-15.65,24-30,24-16.95,0-27.28-12.78-27.28-32.59,0-20.25,11.63-34.89,29.72-34.89,8.9,0,15.36,3.44,20,9.9,2.88,4,4.31,8.62,4.89,16.37H544.36c.72,10.91,1.44,16.52,6.61,23.41a19,19,0,0,0,15.94,7.89c9.62,0,15.07-4.45,22.11-15.07ZM573.94,64.41c-1.58-11.63-4.59-16.51-14.07-16.51-8,0-13.64,5.74-15.22,16.51Z"/><path class="cls-2" d="M657.94,42.3c-1.73-6.32-3.31-10-5.89-13.5-5-6.46-12.21-11.2-20.82-11.2-8.9,0-14.5,5.75-14.5,13.64,0,9.77,10.62,15.8,25.7,24.55C657.65,64.7,664.68,73,664.68,83.94c0,16.08-12.63,26.84-29.29,26.84a41.89,41.89,0,0,1-16.94-3.3,18.43,18.43,0,0,0-6.75-1.58c-2.15,0-4,1.73-4,4.74h-3.16L600.36,80.2h3.16c6.6,17.38,15.94,25.42,29.58,25.42,10,0,17.08-6.61,17.08-16.08A15.57,15.57,0,0,0,646,78.19c-5-5.45-14.94-11.77-24.12-16.65-12.93-6.89-17.52-15.8-17.52-24.7,0-15.65,10.77-25.12,25-25.12a34.4,34.4,0,0,1,15.08,3.15,17.41,17.41,0,0,0,6.32,1.73c2.44,0,4-1.73,4.59-4.88h3l3.16,30.58Z"/><path class="cls-2" d="M709.19,110.21c-17.37,0-31-14.21-31-34.17s12.92-33.31,32.3-33.31c17.52,0,31,13.06,31,32.88S728.58,110.21,709.19,110.21ZM721.4,53.93c-3.45-4.31-7.47-7.18-13.64-7.18-9.91,0-16.66,8.47-16.66,22.83,0,11.34,2.3,21.68,7.61,29.43a15.52,15.52,0,0,0,12.92,7.18c10.63,0,17-10,17-26.71C728.58,69.72,726,59.81,721.4,53.93Z"/><path class="cls-2" d="M814.72,103.61a166.15,166.15,0,0,0-19.67,6.46l-.72-.43V97.86h-.28c-7,9.62-15.22,12.35-20.53,12.35-11.06,0-17.52-7.32-17.52-18.38v-36c0-7.18-2-9.18-8.9-9.62v-2h21V90.54c0,6.6,4.6,11.34,10.19,11.34a18,18,0,0,0,12.07-4.45c2.29-2,3.3-3.3,3.3-8.33V55.94c0-7.61-2-8.76-10.63-9.33V44.16h22.69V93.41c0,6.61,1.58,8.19,8.18,8.19h.86Z"/><path class="cls-2" d="M875.46,108.78h-54v-2.16l38.19-58.15H840.28c-9,0-11.2,2.16-12.49,12.64h-2.58l.57-17h49.68v2.16l-38.63,58.15h19.1c8.33,0,13.21-1.44,15.22-3.88s2.44-4.74,3.88-11.92l2.58.58Z"/><path class="cls-2" d="M944.81,103.32c-4.31,5.46-8,6.89-12.93,6.89-5.31,0-8.47-2.87-9.19-10.48h-.14c-7.61,8.61-14.64,10.48-20.82,10.48-8.9,0-15.08-5.46-15.08-14.93,0-7.47,4.46-13.07,10.06-16.8,4.3-2.87,9.62-5.6,25.84-11.63V59.1c0-8.9-4.74-12.93-11.2-12.93-5.74,0-10.05,3.16-10.05,7,0,2.58.86,3,.86,6,0,2.73-2.87,5.89-6.6,5.89a6.51,6.51,0,0,1-6.18-6.61c0-3.73,2.3-8.32,7.33-11.48,4-2.59,10-4.31,16.51-4.31,8,0,13.5,2.3,16.94,6.46s4,7.18,4,15.94V92.55c0,6.61,1.87,9.48,4.45,9.48,2.3,0,3.73-.72,6.18-2.73Zm-22.26-33c-8.9,3.15-14.79,6.17-18.38,9.47a14,14,0,0,0-4.88,11.06c0,7.61,4.31,11,9.91,11a15.55,15.55,0,0,0,8.32-2.29c4.17-2.88,5-4.89,5-9Z"/><polygon class="cls-2" points="42.58 46.21 30.67 54.64 30.67 104.35 42.58 74.49 42.58 46.21"/><path class="cls-2" d="M61.27,58.81a1.6,1.6,0,0,1,1.6-1.59h6.6a1.6,1.6,0,0,1,1.6,1.59v3.42h1.18v-41L60.34,29.67V62.23h.93Z"/><path class="cls-2" d="M48.72,62.24h7.14v-11l-11-5.51V68.67L47,63.4A1.85,1.85,0,0,1,48.72,62.24Z"/><polygon class="cls-2" points="85.53 49.04 85.53 40.87 85.53 26.27 74.57 20.75 74.57 62.23 85.53 62.23 85.53 49.04"/><path class="cls-2" d="M121.92,128.05h0a1.84,1.84,0,0,1-.47-.07l-.11,0a2,2,0,0,1-.42-.2h0a1.86,1.86,0,0,1-.36-.33l-.07-.09a1.67,1.67,0,0,1-.25-.43h0l-23-57.78-9.55,24a16.25,16.25,0,0,1,1.73-.1,19.63,19.63,0,0,1,8.61,1.81,10.09,10.09,0,0,0,3.61,1c1.4,0,2.3-1,2.63-2.79h1.72l1.8,17.48h-2c-1-3.61-1.88-5.74-3.36-7.71-2.87-3.7-7-6.4-11.9-6.4a10.51,10.51,0,0,0-2.15.22,8.81,8.81,0,0,0-2.39.88l-3.43,8.78s0,.05,0,.07c1.37,4.38,6.9,7.54,14.35,11.87,8.7,5.09,12.72,9.85,12.72,16.08,0,9.19-7.22,15.34-16.74,15.34a24,24,0,0,1-9.68-1.88,10.49,10.49,0,0,0-3.86-.91,2.41,2.41,0,0,0-2.29,2.71H75.13L72.75,132.1h1.81c3.77,9.93,9.11,14.52,16.9,14.52,5.74,0,9.76-3.77,9.76-9.19A8.86,8.86,0,0,0,98.84,131c-2.87-3.12-8.53-6.73-13.78-9.52a22.36,22.36,0,0,1-6.59-5.07l-13.1,33.21H64.14l-20-44.63c-2.64-6-4-8-6.23-8.69L25.68,126.88h0a1.67,1.67,0,0,1-.25.43l-.08.09a1.61,1.61,0,0,1-.36.33h0a2,2,0,0,1-.41.2l-.12,0a1.77,1.77,0,0,1-.46.07H7.59v20.84a8.51,8.51,0,0,0,8.52,8.52H129.77a8.52,8.52,0,0,0,8.52-8.52V128.05H121.92Z"/><path class="cls-2" d="M90,49V62.23h7.32l.19,0,.17,0,.15,0h0l.16.08.16.09.11.09.17.14.08.1c0,.06.1.11.15.18l.06.11a2.12,2.12,0,0,1,.11.21v0l3,7.64V37.29L90,45.73Z"/><polygon class="cls-2" points="104.24 76.86 115.21 104.35 115.21 42.33 104.24 36.82 104.24 76.86"/><path class="cls-2" d="M71.07,66.91a1.6,1.6,0,0,1-3.2,0v-6.5H64.46v6.5a1.6,1.6,0,1,1-3.19,0V66H50L38.65,94.36H57v1.56l-2.3.16c-2.62.16-3.69.9-3.69,2.54,0,1.32.74,3.29,3.2,8.78l12.47,28.06L76,112.21l2.65-6.67.09-.16L94.41,66H71.07Z"/><path class="cls-2" d="M26.19,115.58V53.49a2.24,2.24,0,0,1,.94-1.83L42.44,40.81a2.24,2.24,0,0,1,2.3-.17l11.12,5.59V28.51a2.22,2.22,0,0,1,1-1.83l15.3-10.84a2.26,2.26,0,0,1,2.31-.18l14.36,7.23a2.22,2.22,0,0,1,1.23,2V40.24l11.78-8.34a2.24,2.24,0,0,1,2.3-.17L118.45,39a2.24,2.24,0,0,1,1.24,2v74.63l3.49,8.76h15.11V16.11a8.52,8.52,0,0,0-8.52-8.52H16.11a8.51,8.51,0,0,0-8.52,8.52V124.34h15.1Z"/><path class="cls-2" d="M78.36,116.22h0l.11.14h0A.64.64,0,0,1,78.36,116.22Z"/><path class="cls-2" d="M129.77,4.3a11.83,11.83,0,0,1,11.81,11.81V148.89a11.83,11.83,0,0,1-11.81,11.81H16.11A11.83,11.83,0,0,1,4.3,148.89V16.11A11.83,11.83,0,0,1,16.11,4.3Zm0-4.3H16.11A16.13,16.13,0,0,0,0,16.11V148.89A16.13,16.13,0,0,0,16.11,165H129.77a16.12,16.12,0,0,0,16.1-16.11V16.11A16.12,16.12,0,0,0,129.77,0Z"/></g></g></svg>